<?xml version="1.0" encoding="utf-8"?>
<!-- Generator: Adobe Illustrator 26.0.1, SVG Export Plug-In . SVG Version: 6.00 Build 0)  -->
<svg version="1.1" id="レイヤー_1" xmlns="http://www.w3.org/2000/svg" xmlns:xlink="http://www.w3.org/1999/xlink" x="0px"
	 y="0px" viewBox="0 0 557.9 110.6" style="enable-background:new 0 0 557.9 110.6;" xml:space="preserve">
<style type="text/css">
	.st0{fill:url(#SVGID_1_);}
	.st1{fill:#FFFFFF;stroke:#616AFF;stroke-width:3;stroke-miterlimit:10;}
</style>
<g id="レイヤー_2_00000020384675767220774250000016770935738796725389_">
	<g id="レイヤー_1-2">
		
			<linearGradient id="SVGID_1_" gradientUnits="userSpaceOnUse" x1="278.819" y1="113.84" x2="278.819" y2="2.68" gradientTransform="matrix(1 0 0 -1 0 112)">
			<stop  offset="0" style="stop-color:#7200FF"/>
			<stop  offset="1" style="stop-color:#50D2FF"/>
		</linearGradient>
		<path class="st0" d="M87.9,34.1c-1.9,1.8-4.4,2.7-7,2.6H65.5v64.4c0.2,2.6-0.7,5.1-2.4,7c-1.9,1.8-4.4,2.7-7,2.6H34.2
			c-2.6,0.2-5.1-0.8-7-2.6c-1.7-1.9-2.6-4.4-2.4-7V36.7H9.4c-2.6,0.2-5.1-0.8-7-2.6c-1.7-1.9-2.6-4.4-2.4-7v-17
			c-0.2-2.6,0.7-5.1,2.4-7c1.9-1.8,4.4-2.7,7-2.6h71.5c2.6-0.2,5.1,0.8,7,2.6c1.7,1.9,2.6,4.4,2.4,7v17
			C90.5,29.7,89.6,32.2,87.9,34.1z M178.9,53.3c0.9,3.5,1.3,7.1,1.4,10.7v37.1c0.2,2.6-0.7,5.1-2.4,7c-1.9,1.8-4.4,2.7-6.9,2.6
			h-20.5c-2.6,0.1-5.1-0.7-7.1-2.4c-1.9-1.9-2.9-4.5-2.7-7.2V85.9h-15v15.2c0.2,2.6-0.7,5.1-2.4,7c-1.9,1.8-4.4,2.7-6.9,2.6H96.4
			c-2.6,0.2-5.1-0.8-7-2.6c-1.7-1.9-2.6-4.4-2.4-7V64c0.1-3.6,0.5-7.2,1.4-10.7c1.1-4.5,2.5-9,4.2-13.3l11.8-31.8
			c0.7-2.3,2.2-4.4,4.3-5.7c2.1-1.3,4.5-1.9,6.9-1.9h36.5c2.4-0.1,4.7,0.6,6.7,1.9c2,1.4,3.5,3.4,4.3,5.7L174.7,40
			C176.4,44.4,177.7,48.8,178.9,53.3L178.9,53.3z M133.4,36.7H133l-4.4,14.8h9.2L133.4,36.7z M266.3,47.3h-19.6
			c-2.6-0.2-5.1,0.8-7,2.6c-1.7,1.9-2.6,4.4-2.4,7v18.2h-9.5v-65c0.2-2.6-0.7-5.1-2.4-7c-1.9-1.8-4.4-2.7-6.9-2.5h-21
			c-2.6-0.2-5.1,0.8-6.9,2.6c-1.7,1.9-2.6,4.4-2.4,7v90.9c-0.2,2.6,0.7,5.1,2.4,7c1.9,1.8,4.4,2.7,7,2.6h69c2.6,0.2,5.1-0.8,7-2.6
			c1.7-1.9,2.6-4.4,2.4-7V56.9c0.2-2.6-0.7-5.1-2.4-7C271.4,48.1,268.9,47.2,266.3,47.3z M354.4,0.6h-62.9c-2.6-0.2-5.1,0.8-7,2.6
			c-1.7,1.9-2.6,4.4-2.4,7v90.9c-0.2,2.6,0.7,5.1,2.4,7c1.9,1.8,4.4,2.7,7,2.6h62.9c2.6,0.2,5.1-0.8,7-2.6c1.7-1.9,2.6-4.4,2.4-7
			V84.7c0.2-2.6-0.7-5.1-2.4-7c-1.9-1.8-4.4-2.7-7-2.6h-32.9V72h21.9c2.6,0.2,5.1-0.8,7-2.6c1.7-1.9,2.6-4.4,2.4-7v-15
			c0.1-2.6-0.7-5.1-2.4-7c-1.9-1.8-4.4-2.7-7-2.6h-21.9v-1.8h32.9c2.6,0.2,5.1-0.8,7-2.6c1.7-1.9,2.6-4.4,2.4-7V10.1
			c0.2-2.6-0.7-5.1-2.4-7C359.5,1.4,357,0.4,354.4,0.6z M453.7,0.6h-20.3c-2.6-0.2-5.1,0.8-7,2.6c-1.7,1.9-2.6,4.4-2.4,7v17.6
			L405.7,6c-1.4-1.7-3.1-3.2-5.1-4.1c-2-0.9-4.1-1.3-6.3-1.3h-14.1c-2.6-0.2-5.1,0.8-7,2.6c-1.7,1.9-2.6,4.4-2.4,7v90.9
			c-0.2,2.6,0.7,5.1,2.4,7c1.9,1.8,4.4,2.7,7,2.6h20.3c2.6,0.2,5.1-0.8,7-2.6c1.7-1.9,2.6-4.4,2.4-7V67.6L424,85.4v15.7
			c-0.2,2.6,0.7,5.1,2.4,7c1.9,1.8,4.4,2.7,7,2.6h20.3c2.6,0.1,5.1-0.8,7-2.6c1.7-1.9,2.6-4.4,2.4-7V10.1c0.2-2.6-0.7-5.1-2.4-7
			C458.8,1.4,456.3,0.5,453.7,0.6z M548.2,0.6h-71.5c-2.6-0.2-5.1,0.8-7,2.6c-1.7,1.9-2.6,4.4-2.4,7v17c-0.2,2.6,0.7,5.1,2.4,7
			c1.9,1.8,4.4,2.7,7,2.6H492v64.4c-0.2,2.6,0.7,5.1,2.4,7c1.9,1.8,4.4,2.7,7,2.6h21.9c2.6,0.2,5.1-0.8,7-2.6c1.7-1.9,2.6-4.4,2.4-7
			V36.7h15.4c2.6,0.2,5.1-0.8,7-2.6c1.7-1.9,2.6-4.4,2.4-7v-17c0.2-2.6-0.7-5.1-2.4-7C553.4,1.3,550.8,0.4,548.2,0.6z"/>
		<path class="st1" d="M53.2,99H31.2c-1.3,0.1-2.7-0.3-3.7-1.2c-0.9-1-1.3-2.4-1.1-3.7V27.6H6.4c-1.3,0.1-2.7-0.3-3.7-1.1
			c-0.9-1-1.3-2.4-1.2-3.7V6.4C1.4,5,1.9,3.7,2.7,2.7c1-0.9,2.4-1.3,3.7-1.2H78c1.3-0.1,2.7,0.3,3.7,1.2c0.9,1,1.3,2.4,1.2,3.7v16.4
			c0.1,1.3-0.3,2.7-1.2,3.7c-1,0.9-2.4,1.3-3.7,1.1H58.1v66.5c0.1,1.3-0.3,2.7-1.2,3.7C55.9,98.7,54.5,99.1,53.2,99z"/>
		<path class="st1" d="M118.2,94.1c0.4,2.3-1.1,4.4-3.3,4.9c-0.5,0.1-1,0.1-1.5,0H93.4c-2.3,0.4-4.5-1.1-4.9-3.3
			c-0.1-0.5-0.1-1,0-1.5V58.4c0.1-3.2,0.5-6.3,1.3-9.4c1.1-4.2,2.4-8.3,4-12.3L105.6,6c0.4-1.4,1.3-2.6,2.5-3.4
			c1.3-0.8,2.9-1.1,4.4-1.1h36.4c1.5-0.1,3,0.3,4.3,1.1c1.2,0.8,2.1,2,2.5,3.4l11.8,30.7c1.6,4,2.9,8.1,4,12.3
			c0.8,3.1,1.2,6.2,1.3,9.3v35.8c0.4,2.3-1.1,4.4-3.4,4.9c-0.5,0.1-1,0.1-1.5,0h-20.4c-1.4,0.1-2.9-0.3-4-1.2
			c-0.9-1-1.4-2.4-1.3-3.7v-19h-24L118.2,94.1z M125.9,29.9l-6.4,20.6h21.3l-6.4-20.6c-0.3-0.7-0.7-1.3-1.1-1.8
			c-0.4-0.4-0.9-0.5-1.4-0.5h-3.4c-0.5,0-1,0.2-1.4,0.5C126.6,28.7,126.2,29.3,125.9,29.9z"/>
		<path class="st1" d="M263.3,99h-69c-2.3,0.4-4.4-1.1-4.9-3.3c-0.1-0.5-0.1-1,0-1.6V6.4c-0.1-1.3,0.3-2.7,1.1-3.7
			c1-0.9,2.4-1.3,3.7-1.1h21c1.3-0.1,2.7,0.3,3.7,1.1c0.9,1,1.3,2.4,1.1,3.7v67h18.6V51.5c-0.1-1.3,0.3-2.7,1.1-3.7
			c1-0.9,2.4-1.3,3.7-1.2h19.6c1.4-0.1,2.7,0.3,3.8,1.2c0.9,1,1.3,2.4,1.1,3.7v42.7c0.4,2.3-1.1,4.4-3.3,4.9
			C264.3,99.1,263.8,99.1,263.3,99z"/>
		<path class="st1" d="M351.3,99h-62.8c-2.3,0.4-4.5-1.1-4.9-3.3c-0.1-0.5-0.1-1,0-1.5V6.4c-0.1-1.3,0.3-2.7,1.1-3.7
			c1-0.9,2.4-1.3,3.7-1.1h62.8c1.3-0.1,2.7,0.3,3.7,1.1c0.9,1,1.3,2.4,1.1,3.7v15.8c0.1,1.4-0.3,2.7-1.1,3.8c-1,0.9-2.4,1.3-3.7,1.1
			h-37.4v10.4h26.4c1.3-0.1,2.7,0.3,3.7,1.2c0.9,1,1.3,2.4,1.1,3.7v14.5c0.1,1.3-0.3,2.7-1.1,3.7c-1,0.9-2.4,1.3-3.7,1.2h-26.4v11.6
			h37.4c2.3-0.4,4.5,1.1,4.9,3.3c0.1,0.5,0.1,1,0,1.5v15.8c0.4,2.3-1.1,4.4-3.4,4.9C352.3,99.1,351.8,99.1,351.3,99z"/>
		<path class="st1" d="M397.3,99H377c-2.3,0.4-4.5-1.1-4.9-3.3c-0.1-0.5-0.1-1,0-1.5V6.4c-0.1-1.3,0.3-2.7,1.1-3.7
			c1-0.9,2.4-1.3,3.7-1.2h14.1c1.5,0,3,0.2,4.4,0.8c1.4,0.7,2.6,1.6,3.6,2.8l26.3,30.1V6.4c-0.1-1.3,0.3-2.7,1.1-3.7
			c1-0.9,2.4-1.3,3.7-1.1h20.3c1.3-0.1,2.7,0.3,3.7,1.1c0.9,1,1.3,2.4,1.1,3.7v87.8c0.4,2.3-1.1,4.4-3.3,4.9c-0.5,0.1-1,0.1-1.5,0
			h-20.3c-2.3,0.4-4.5-1.1-4.9-3.3c-0.1-0.5-0.1-1,0-1.5V77.5l-23.2-28v44.7c0.4,2.3-1.1,4.4-3.4,4.9
			C398.4,99.1,397.8,99.1,397.3,99z"/>
		<path class="st1" d="M520.2,99h-21.9c-2.3,0.4-4.4-1.1-4.9-3.3c-0.1-0.5-0.1-1,0-1.6V27.6h-19.9c-1.3,0.1-2.7-0.3-3.7-1.1
			c-0.9-1-1.3-2.4-1.1-3.7V6.4c-0.1-1.3,0.3-2.7,1.1-3.7c1-0.9,2.4-1.3,3.7-1.1H545c1.3-0.1,2.7,0.3,3.7,1.1c0.9,1,1.3,2.4,1.2,3.7
			v16.4c0.1,1.3-0.3,2.7-1.2,3.7c-1,0.9-2.4,1.3-3.7,1.1h-19.9v66.5c0.4,2.3-1.1,4.4-3.4,4.9C521.2,99.1,520.7,99.1,520.2,99z"/>
	</g>
</g>
</svg>
