<svg xmlns="http://www.w3.org/2000/svg" xmlns:xlink="http://www.w3.org/1999/xlink" width="32" height="32" viewBox="0 0 32 32"><defs><linearGradient id="a" x1="0.878" y1="0.112" x2="0.182" y2="0.821" gradientUnits="objectBoundingBox"><stop offset="0" stop-color="#85dfff"/><stop offset="1" stop-color="#7200ff"/></linearGradient></defs><g transform="translate(-1.892 -1.892)"><rect width="32" height="32" rx="16" transform="translate(1.892 1.892)" fill="url(#a)"/><path d="M.637-.133A.133.133,0,0,0,.77,0H3.619a.133.133,0,0,0,.133-.133V-.707A.133.133,0,0,0,3.619-.84H1.547V-2.065H3.276A.133.133,0,0,0,3.409-2.2v-.581a.138.138,0,0,0-.133-.133H1.547V-4.06H3.619a.133.133,0,0,0,.133-.133v-.574A.133.133,0,0,0,3.619-4.9H.77a.133.133,0,0,0-.133.133Zm4.116,0A.138.138,0,0,0,4.886,0h.637a.133.133,0,0,0,.133-.133v-3.01h.007L8.589.07h.168A.132.132,0,0,0,8.89-.056V-4.767A.138.138,0,0,0,8.757-4.9H8.113a.133.133,0,0,0-.133.133v2.891H7.973L5.061-4.97H4.886a.132.132,0,0,0-.133.126Z" transform="translate(12.892 27.892)" fill="#fff"/><g transform="translate(11.892 7.442)"><path d="M.75,5.521H2.583a10.09,10.09,0,0,1,.23-1.84H1.232a5.122,5.122,0,0,0-.483,1.84ZM1.66,2.945H3.011a6.821,6.821,0,0,1,.471-1.133,4.932,4.932,0,0,1,.439-.687A5.171,5.171,0,0,0,1.66,2.945ZM5.889,0a5.889,5.889,0,1,0,5.889,5.889A5.889,5.889,0,0,0,5.889,0ZM5.521.793A2.59,2.59,0,0,0,4.132,2.158a5.862,5.862,0,0,0-.345.786H5.521Zm0,2.888H3.568a9.2,9.2,0,0,0-.249,1.84h2.2Zm.736,1.84V3.681H8.21a9.161,9.161,0,0,1,.249,1.84Zm-.736.736H3.32A9.2,9.2,0,0,0,3.568,8.1H5.521ZM6.257,8.1V6.257h2.2A9.2,9.2,0,0,1,8.211,8.1Zm-.736.736H3.787a5.843,5.843,0,0,0,.345.786,2.6,2.6,0,0,0,1.389,1.366Zm-1.6,1.82a4.929,4.929,0,0,1-.439-.687,6.822,6.822,0,0,1-.471-1.133H1.66a5.171,5.171,0,0,0,2.261,1.82ZM1.232,8.1h1.58a10.049,10.049,0,0,1-.23-1.84H.749A5.105,5.105,0,0,0,1.232,8.1Zm6.625,2.556a5.171,5.171,0,0,0,2.261-1.82H8.768A6.83,6.83,0,0,1,8.3,9.967,4.923,4.923,0,0,1,7.857,10.654Zm.134-1.82H6.257v2.152A2.59,2.59,0,0,0,7.647,9.62a5.875,5.875,0,0,0,.345-.786ZM8.966,8.1h1.58a5.1,5.1,0,0,0,.483-1.84H9.2a10.049,10.049,0,0,1-.23,1.84ZM9.2,5.521h1.833a5.123,5.123,0,0,0-.483-1.84H8.966A10.119,10.119,0,0,1,9.2,5.521ZM8.768,2.945A6.829,6.829,0,0,0,8.3,1.812a4.926,4.926,0,0,0-.439-.687,5.171,5.171,0,0,1,2.261,1.82H8.768Zm-.777,0H6.257V.793A2.59,2.59,0,0,1,7.647,2.158a5.862,5.862,0,0,1,.345.786Z" fill="#fff" fill-rule="evenodd"/></g></g></svg>