<?xml version="1.0" encoding="utf-8"?>
<!-- Generator: Adobe Illustrator 26.0.1, SVG Export Plug-In . SVG Version: 6.00 Build 0)  -->
<svg version="1.1" id="レイヤー_1" xmlns="http://www.w3.org/2000/svg" xmlns:xlink="http://www.w3.org/1999/xlink" x="0px"
	 y="0px" viewBox="0 0 401.3 68.8" style="enable-background:new 0 0 401.3 68.8;" xml:space="preserve">
<style type="text/css">
	.st0{fill:url(#SVGID_1_);}
	.st1{fill:url(#SVGID_00000076578092060135179630000001345036778603860133_);}
	.st2{fill:url(#SVGID_00000022524360857283782650000001421412434020684183_);}
	.st3{fill:url(#SVGID_00000124866992940856276510000005193581902524614551_);}
	.st4{fill:url(#SVGID_00000047751872882991590820000004885952827472483212_);}
	.st5{fill:url(#SVGID_00000121251836782641179710000007146895345191371421_);}
	.st6{fill:url(#SVGID_00000133489252997608489190000017835469928939224976_);}
	.st7{fill:url(#SVGID_00000086675886135898904920000000822556455078566812_);}
	.st8{fill:url(#SVGID_00000078736638095772499840000000194931623079831952_);}
	.st9{fill:url(#SVGID_00000158008003001251171920000009042019484739580834_);}
	.st10{fill:#343442;}
</style>
<g>
	<g>
		<g>
			<linearGradient id="SVGID_1_" gradientUnits="userSpaceOnUse" x1="46.9131" y1="3.8019" x2="-4.4346" y2="55.1496">
				<stop  offset="0" style="stop-color:#86D1FD"/>
				<stop  offset="1" style="stop-color:#6100FA"/>
			</linearGradient>
			<path class="st0" d="M26.5,26.1c-0.5,0-1-0.2-1.3-0.6c-0.7-0.7-0.7-1.9,0-2.7L41.5,6.5c0.7-0.7,1.9-0.7,2.7,0
				c0.7,0.7,0.7,1.9,0,2.7L27.8,25.6C27.4,26,27,26.1,26.5,26.1z"/>
			
				<linearGradient id="SVGID_00000147914718864323983320000006130862305441239735_" gradientUnits="userSpaceOnUse" x1="50.8444" y1="-0.2527" x2="-2.7399" y2="53.3315">
				<stop  offset="0" style="stop-color:#86D1FD"/>
				<stop  offset="1" style="stop-color:#6100FA"/>
			</linearGradient>
			<path style="fill:url(#SVGID_00000147914718864323983320000006130862305441239735_);" d="M5.2,47.3c-0.5,0-1-0.2-1.3-0.6
				c-0.7-0.7-0.7-1.9,0-2.7L9.9,38c0.7-0.7,1.9-0.7,2.7,0c0.7,0.7,0.7,1.9,0,2.7l-6.1,6.1C6.1,47.2,5.6,47.3,5.2,47.3z"/>
			
				<linearGradient id="SVGID_00000180332702691422513740000011559951769073838239_" gradientUnits="userSpaceOnUse" x1="57.901" y1="12.2983" x2="6.8612" y2="63.3381">
				<stop  offset="0" style="stop-color:#86D1FD"/>
				<stop  offset="1" style="stop-color:#6100FA"/>
			</linearGradient>
			<path style="fill:url(#SVGID_00000180332702691422513740000011559951769073838239_);" d="M12.6,59.5c-0.5,0-1-0.2-1.3-0.6
				c-0.7-0.7-0.7-1.9,0-2.7l33.6-33.6c0.7-0.7,1.9-0.7,2.7,0c0.7,0.7,0.7,1.9,0,2.7L14,58.9C13.6,59.3,13.1,59.5,12.6,59.5z"/>
			
				<linearGradient id="SVGID_00000167377799870952836000000010443915043046057353_" gradientUnits="userSpaceOnUse" x1="66.3037" y1="23.3799" x2="16.7298" y2="72.9538">
				<stop  offset="0" style="stop-color:#86D1FD"/>
				<stop  offset="1" style="stop-color:#6100FA"/>
			</linearGradient>
			<path style="fill:url(#SVGID_00000167377799870952836000000010443915043046057353_);" d="M24.9,66.7c-0.5,0-1-0.2-1.3-0.6
				c-0.7-0.7-0.7-1.9,0-2.7L63,24c0.7-0.7,1.9-0.7,2.7,0c0.7,0.7,0.7,1.9,0,2.7L26.2,66.1C25.9,66.5,25.4,66.7,24.9,66.7z"/>
			
				<linearGradient id="SVGID_00000091005105420975762200000003253904373833300384_" gradientUnits="userSpaceOnUse" x1="75.8406" y1="33.3273" x2="27.1904" y2="81.9775">
				<stop  offset="0" style="stop-color:#86D1FD"/>
				<stop  offset="1" style="stop-color:#6100FA"/>
			</linearGradient>
			<path style="fill:url(#SVGID_00000091005105420975762200000003253904373833300384_);" d="M54.9,56.2c-0.5,0-1-0.2-1.3-0.6
				c-0.7-0.7-0.7-1.9,0-2.7l8.8-8.8c0.7-0.7,1.9-0.7,2.7,0c0.7,0.7,0.7,1.9,0,2.7l-8.8,8.8C55.9,56,55.4,56.2,54.9,56.2z"/>
			
				<linearGradient id="SVGID_00000076592063034623554650000010848595242697394604_" gradientUnits="userSpaceOnUse" x1="38.0874" y1="-6.9179" x2="-13.4412" y2="44.6108">
				<stop  offset="0" style="stop-color:#86D1FD"/>
				<stop  offset="1" style="stop-color:#6100FA"/>
			</linearGradient>
			<path style="fill:url(#SVGID_00000076592063034623554650000010848595242697394604_);" d="M2.3,30.8c-0.5,0-1-0.2-1.3-0.6
				c-0.7-0.7-0.7-1.9,0-2.7l14.7-14.7c0.7-0.7,1.9-0.7,2.7,0c0.7,0.7,0.7,1.9,0,2.7L3.6,30.2C3.2,30.6,2.8,30.8,2.3,30.8z"/>
			
				<linearGradient id="SVGID_00000160159901914912992870000002211019339814715783_" gradientUnits="userSpaceOnUse" x1="37.0771" y1="-5.8466" x2="-12.4967" y2="43.7272">
				<stop  offset="0" style="stop-color:#86D1FD"/>
				<stop  offset="1" style="stop-color:#6100FA"/>
			</linearGradient>
			<path style="fill:url(#SVGID_00000160159901914912992870000002211019339814715783_);" d="M18.6,7.5L19.8,8
				c1.5,0.7,2.8,1.9,3.5,3.5l0.5,1.2c0.3,0.7,1.3,0.7,1.6,0l0.5-1.2c0.7-1.5,1.9-2.8,3.5-3.5l1.2-0.5c0.7-0.3,0.7-1.3,0-1.6
				l-1.2-0.5c-1.5-0.7-2.8-1.9-3.5-3.5l-0.5-1.2c-0.3-0.7-1.3-0.7-1.6,0l-0.5,1.2c-0.7,1.5-1.9,2.8-3.5,3.5l-1.2,0.5
				C17.9,6.2,17.9,7.2,18.6,7.5z"/>
			
				<linearGradient id="SVGID_00000002386017997716741080000000235190024873124481_" gradientUnits="userSpaceOnUse" x1="56.5614" y1="13.6377" x2="6.9876" y2="63.2115">
				<stop  offset="0" style="stop-color:#86D1FD"/>
				<stop  offset="1" style="stop-color:#6100FA"/>
			</linearGradient>
			<path style="fill:url(#SVGID_00000002386017997716741080000000235190024873124481_);" d="M47.8,17.2l1.2,0.5
				c1.5,0.7,2.8,1.9,3.5,3.5l0.5,1.2c0.3,0.7,1.3,0.7,1.6,0l0.5-1.2c0.7-1.5,1.9-2.8,3.5-3.5l1.2-0.5c0.7-0.3,0.7-1.3,0-1.6
				l-1.2-0.5c-1.5-0.7-2.8-1.9-3.5-3.5l-0.5-1.2c-0.3-0.7-1.3-0.7-1.6,0l-0.5,1.2c-0.7,1.5-1.9,2.8-3.5,3.5l-1.2,0.5
				C47.2,15.9,47.2,16.9,47.8,17.2z"/>
			
				<linearGradient id="SVGID_00000163049582747824432720000014681587191071668097_" gradientUnits="userSpaceOnUse" x1="76.0457" y1="33.1222" x2="26.472" y2="82.6958">
				<stop  offset="0" style="stop-color:#86D1FD"/>
				<stop  offset="1" style="stop-color:#6100FA"/>
			</linearGradient>
			<path style="fill:url(#SVGID_00000163049582747824432720000014681587191071668097_);" d="M41.4,62.6l1.2,0.5
				c1.5,0.7,2.8,1.9,3.5,3.5l0.5,1.2c0.3,0.7,1.3,0.7,1.6,0l0.5-1.2c0.7-1.5,1.9-2.8,3.5-3.5l1.2-0.5c0.7-0.3,0.7-1.3,0-1.6
				l-1.2-0.5c-1.5-0.7-2.8-1.9-3.5-3.5l-0.5-1.2c-0.3-0.7-1.3-0.7-1.6,0L46,57.1c-0.7,1.5-1.9,2.8-3.5,3.5l-1.2,0.5
				C40.7,61.4,40.7,62.3,41.4,62.6z"/>
			
				<linearGradient id="SVGID_00000126287933611438025070000013434971843824823732_" gradientUnits="userSpaceOnUse" x1="46.7886" y1="3.8647" x2="-2.7854" y2="53.4387">
				<stop  offset="0" style="stop-color:#86D1FD"/>
				<stop  offset="1" style="stop-color:#6100FA"/>
			</linearGradient>
			<path style="fill:url(#SVGID_00000126287933611438025070000013434971843824823732_);" d="M12.9,32.6l1.2,0.5
				c1.5,0.7,2.8,1.9,3.5,3.5l0.5,1.2c0.3,0.7,1.3,0.7,1.6,0l0.5-1.2c0.7-1.5,1.9-2.8,3.5-3.5l1.2-0.5c0.7-0.3,0.7-1.3,0-1.6
				l-1.2-0.5c-1.5-0.7-2.8-1.9-3.5-3.5l-0.5-1.2c-0.3-0.7-1.3-0.7-1.6,0L17.6,27c-0.7,1.5-1.9,2.8-3.5,3.5L12.9,31
				C12.3,31.3,12.3,32.3,12.9,32.6z"/>
		</g>
	</g>
	<g>
		<path class="st10" d="M114.8,20H109c-1.2,0-1.7,0.4-1.7,1.6l0.1,7.6c0,0.4-0.3,0.7-0.7,0.7H95.4c-0.4,0-0.7-0.3-0.7-0.7l0-7.6
			c0-1.2-0.4-1.6-1.7-1.6h-5.7c-0.9,0-1.7,0.7-1.7,1.7v25c0,0.9,0.7,1.7,1.7,1.7h5.7c1.2,0,1.7-0.4,1.7-1.6l0-7.5
			c0-0.4,0.3-0.7,0.7-0.7h11.3c0.4,0,0.7,0.3,0.7,0.7l-0.1,7.5c0,1.2,0.4,1.6,1.7,1.6h5.8c1.3,0,1.7-0.4,1.7-1.7v-25
			C116.4,20.7,115.7,20,114.8,20z"/>
		<path class="st10" d="M182.9,37.8c-0.9-0.9-1.4-0.8-2.3,0.1l-1.6,1.6c-0.2,0.2-0.5,0.3-0.8,0.3h-6.7c-0.6,0-1.1-0.5-1.1-1.1
			l0-17.1c0-1.2-0.4-1.6-1.7-1.6h-5.8c-0.9,0-1.7,0.7-1.7,1.7v25c0,0.9,0.7,1.7,1.7,1.7h18.2c1.2,0,1.9-0.3,2.8-1.1l2.9-2.8
			c0.9-0.9,1-1.4,0.1-2.3L182.9,37.8z"/>
		<path class="st10" d="M318.7,21.2c-0.9-0.9-1.6-1.2-2.8-1.2h-6.4c-1.2,0-2,0.3-2.9,1.2l-7.8,8.1c-0.9,0.9-1.2,1.6-1.2,2.9l0,14.6
			c0,1.2,0.4,1.6,1.7,1.6h5.7c1.2,0,1.6-0.4,1.6-1.7l0-3.1c0-0.4,0.3-0.7,0.7-0.7H318c0.4,0,0.7,0.3,0.7,0.7l-0.1,3.1
			c0,1.3,0.4,1.7,1.6,1.7l5.8,0c1.2,0,1.6-0.4,1.6-1.7V32.1c0-1.2-0.3-1.9-1.1-2.9L318.7,21.2z M318.8,34.5c0,0.4-0.3,0.7-0.7,0.7
			h-10.9c-0.4,0-0.7-0.3-0.7-0.7v-0.9c0-0.2,0.1-0.4,0.2-0.5l5.5-5.2c0.3-0.3,0.7-0.3,1,0l5.5,5.3c0.1,0.1,0.2,0.3,0.2,0.6
			L318.8,34.5z"/>
		<path class="st10" d="M257.5,38.6l-12.4-9.8c-0.3-0.2-0.1-0.7,0.2-0.7h9.4c0.9,0,1.7-0.7,1.7-1.7v-4.8c0-1.2-0.4-1.7-1.6-1.7
			h-16.7c-1.3,0-1.9,0.3-2.6,1.3l-4.4,6c-0.8,1-0.7,1.6,0.3,2.3l12.1,9.8c0.3,0.2,0.1,0.7-0.2,0.7l-9.4,0.1c-1.2,0-1.7,0.4-1.7,1.7
			v4.8c0,1.3,0.4,1.7,1.6,1.7l16.8,0c1.2,0,1.9-0.3,2.7-1.3l4.6-6C258.6,39.9,258.5,39.4,257.5,38.6z"/>
		<path class="st10" d="M400.1,38.6l-12.4-9.8c-0.3-0.2-0.1-0.7,0.2-0.7h9.4c0.9,0,1.7-0.7,1.7-1.7v-4.8c0-1.2-0.4-1.7-1.6-1.7
			h-16.7c-1.3,0-1.9,0.3-2.6,1.3l-4.4,6c-0.8,1-0.7,1.6,0.3,2.3l12.1,9.8c0.3,0.2,0.1,0.7-0.2,0.7l-9.4,0.1c-1.2,0-1.7,0.4-1.7,1.7
			v4.8c0,1.3,0.4,1.7,1.6,1.7l16.8,0c1.2,0,1.9-0.3,2.7-1.3l4.6-6C401.1,39.9,401,39.4,400.1,38.6z"/>
		<path class="st10" d="M282.7,42l-6,6c-0.1,0.1,0,0.4,0.1,0.4h4.5c1.3,0,1.7-0.4,1.7-1.6l0-4.5C283.2,41.9,282.9,41.8,282.7,42z"/>
		<path class="st10" d="M153.1,25l-3.8-3.8c-0.6-0.6-1.1-0.9-1.6-1.1c-0.4-0.1-0.8-0.1-1.2-0.1h-15.5c-0.9,0-1.5,0.2-2.1,0.6
			c0,0,0,0,0,0c0,0,0,0,0,0c-0.2,0.1-0.4,0.3-0.6,0.5l-0.7,0.7l-3.1,3.2c-0.9,0.9-1.1,1.6-1.1,2.8v12.8c0,1.2,0.3,2,1.1,2.8l1,0.9
			l1,1c0.3,0.3,0.7,0.3,1,0l5-5c0.1-0.1,0.2-0.3,0.2-0.5v-11c0-0.4,0.3-0.7,0.7-0.7h11c0.4,0,0.7,0.3,0.7,0.7v10.8
			c0,0.4-0.3,0.7-0.7,0.7h-8.3c-0.2,0-0.4,0.1-0.5,0.2l-3.8,3.9l-0.1,0.1c0,0,0,0,0,0l-3,3l-1.1,1.1c-0.8,0.8-0.8,2,0,2.7
			c0.8,0.8,2,0.8,2.7,0l2.2-2.2c0.4-0.4,1-0.7,1.7-0.7h12.4c0.6,0,1.1-0.1,1.5-0.2c0.5-0.2,0.9-0.5,1.3-0.9l3.9-3.8
			c0.7-0.7,1-1.2,1.1-2v0c0,0,0-0.1,0-0.1c0-0.2,0-0.5,0-0.7V27.8c0-0.2,0-0.3,0-0.4C154.2,26.4,153.8,25.7,153.1,25z"/>
		<path class="st10" d="M124,51.9c-0.8,0.8-0.8,2,0,2.7c0.8,0.8,2,0.8,2.7,0c0.8-0.8,0.8-2,0-2.7C126,51.1,124.7,51.1,124,51.9z"/>
		<path class="st10" d="M265.5,50.5c-0.8,0.8-0.8,2,0,2.7c0.8,0.8,2,0.8,2.7,0c0.8-0.8,0.8-2,0-2.7
			C267.5,49.7,266.3,49.7,265.5,50.5z"/>
		<path class="st10" d="M290.8,20h-24.7c-0.9,0-1.7,0.8-1.7,1.7v5.2c0,1.2,0.4,1.7,1.7,1.7l7.1-0.1c0.4,0,0.7,0.3,0.7,0.7l-0.1,11.9
			c0,0.6-0.3,1.2-0.7,1.7l-4.1,4.1c-0.7,0.7-0.9,1.9-0.2,2.7c0.7,0.9,2.1,1,2.9,0.1l6.6-6.6l0,0l1.3-1.3l3.3-3.3
			c0.2-0.2,0.3-0.5,0.3-0.8l0-8.5c0-0.4,0.3-0.7,0.7-0.7l7,0.1c1.2,0,1.6-0.4,1.6-1.7v-5.2C292.5,20.7,291.8,20,290.8,20z"/>
		<path class="st10" d="M221.6,24l-1-1c-0.3-0.3-0.7-0.3-1,0l-5,5c-0.1,0.1-0.2,0.3-0.2,0.5v11c0,0.4-0.3,0.7-0.7,0.7h-11
			c-0.4,0-0.7-0.3-0.7-0.7V28.7c0-0.4,0.3-0.7,0.7-0.7h8.3c0.2,0,0.4-0.1,0.5-0.2l3.8-3.8l0.1-0.1c0,0,0,0,0,0l2.9-3l0.8-0.8
			c0.7-0.7,0.9-1.9,0.2-2.7c-0.7-0.9-2.1-1-2.9-0.1l-2,2c-0.4,0.4-1,0.7-1.7,0.7h-12.4c-0.6,0-1.1,0.1-1.5,0.2
			c-0.5,0.2-0.9,0.5-1.3,0.9l-3.9,3.8c-0.7,0.7-1,1.2-1.1,2v0c0,0,0,0.1,0,0.1c0,0.2,0,0.5,0,0.7v12.8c0,0.2,0,0.3,0,0.4
			c0.1,1,0.4,1.6,1.2,2.4l3.8,3.8c0.6,0.6,1.1,0.9,1.6,1.1c0.4,0.1,0.8,0.1,1.2,0.1h15.5c0.9,0,1.5-0.2,2.1-0.6c0,0,0,0,0,0
			c0,0,0,0,0,0c0.2-0.1,0.4-0.3,0.6-0.5l0.7-0.7l3.1-3.2c0.9-0.9,1.1-1.6,1.1-2.8V27.7c0-1.2-0.3-2-1.1-2.8L221.6,24z"/>
		<path class="st10" d="M222.6,16.6c0.8-0.8,0.8-2,0-2.7c-0.8-0.8-2-0.8-2.7,0c-0.8,0.8-0.8,2,0,2.7
			C220.7,17.4,221.9,17.4,222.6,16.6z"/>
		<path class="st10" d="M364.4,18.9l-8.6,8.6c-0.3,0.3-0.3,0.8,0,1.1l0.7,0.7c0,0.1,0.1,0.3,0.2,0.4V32c0,0.2-0.1,0.4-0.2,0.5
			l-1.7,1.2c-0.1,0.1-0.3,0.2-0.5,0.2h-9.3c-0.4,0-0.7-0.3-0.7-0.7l-0.1-4.5c0-0.4,0.3-0.7,0.7-0.7l7.1,0c0.2,0,0.4-0.1,0.5-0.2
			l6.8-6.6c0.5-0.4,0.2-1.2-0.5-1.2h-21.8c-0.9,0-1.7,0.7-1.7,1.7v25c0,1.2,0.4,1.7,1.6,1.7l5.7,0c1.2,0,1.6-0.4,1.6-1.7v-4.1
			c0-0.4,0.3-0.7,0.7-0.7h9.3c0.2,0,0.4,0.1,0.5,0.2l1.9,1.9c0.1,0.1,0.2,0.3,0.2,0.5l-0.1,2.2c-0.1,1.2,0.4,1.6,1.6,1.6h5.8
			c1.2,0,1.7-0.4,1.7-1.6l0-4c0-1.2-0.3-1.9-1.2-2.8l-2.5-2.4l2.5-2.3c0.9-0.9,1.2-1.6,1.2-2.8v-4.5c0-1.1-0.3-2-1.1-3
			c-0.2-0.2-0.2-0.6,0-0.8l2.5-2.5c0.8-0.8,0.8-2.1-0.1-2.9C366.3,18,365.1,18.1,364.4,18.9z"/>
		<circle class="st10" cx="369.3" cy="16.7" r="1.9"/>
	</g>
</g>
</svg>
